<?xml version="1.0" standalone="no"?>
<!DOCTYPE svg PUBLIC "-//W3C//DTD SVG 1.1//EN" "http://www.w3.org/Graphics/SVG/1.1/DTD/svg11.dtd" >
<svg xmlns="http://www.w3.org/2000/svg" xmlns:xlink="http://www.w3.org/1999/xlink" version="1.1">
<metadata></metadata>
<defs>
<font id="edu_sa_beginnerregular" horiz-adv-x="1036" vert-adv-y="2048" >
<font-face units-per-em="2048" ascent="1638" descent="-410" />
<missing-glyph horiz-adv-x="583" />
<glyph horiz-adv-x="0" vert-adv-y="0" />
<glyph horiz-adv-x="682" />
<glyph unicode=" " horiz-adv-x="583" vert-adv-y="0" />
<glyph unicode="!" horiz-adv-x="552" vert-adv-y="0" d="M104 98q0 41 28 68t71 27q41 0 68.5 -27t27.5 -68q0 -43 -27.5 -71.5t-68.5 -28.5q-43 0 -71 28.5t-28 71.5zM182 492l113 1038q4 27 26.5 39t45.5 12t39 -12.5t12 -38.5l-111 -1038q-4 -35 -25 -51.5t-44 -14.5q-20 2 -39 18.5t-17 47.5z" />
<glyph unicode="&#x22;" horiz-adv-x="710" vert-adv-y="0" d="M209 1284l24 234q4 33 26 48t42 15q25 0 44.5 -18.5t14.5 -53.5l-26 -233q-4 -29 -23.5 -44t-42.5 -15q-25 0 -43 17t-16 50zM471 1284l29 244q4 27 22.5 40t38.5 13q27 0 45.5 -18.5t16.5 -53.5l-23 -229q-2 -35 -23.5 -49t-44.5 -14q-25 0 -44 17t-17 50z" />
<glyph unicode="#" horiz-adv-x="1771" vert-adv-y="0" d="M117 414q-2 20 13 36.5t48 16.5h1325q35 0 49.5 -16.5t16.5 -36.5t-12.5 -38t-45.5 -18h-1327q-31 0 -48 17.5t-19 38.5zM178 987q-2 20 12.5 38.5t47.5 18.5h1325q33 0 50 -18t19 -39q0 -20 -14 -36.5t-49 -16.5h-1323q-33 0 -50.5 16.5t-17.5 36.5zM432 68l135 1253 q4 31 24.5 46t43.5 15q25 0 42 -16t13 -45l-133 -1253q-6 -35 -27.5 -52.5t-46.5 -15.5q-20 0 -36.5 17.5t-14.5 50.5zM1057 68l133 1253q4 31 25.5 46t44.5 15q23 -2 41 -17t14 -44l-135 -1253q-2 -33 -23.5 -50.5t-44.5 -17.5q-25 -2 -42 16.5t-13 51.5z" />
<glyph unicode="$" horiz-adv-x="1148" vert-adv-y="0" d="M100 253.5q6 25.5 33 33.5t50.5 -3.5t31.5 -41.5q14 -57 67.5 -98.5t168.5 -41.5q86 0 166.5 21.5t136 70t63.5 125.5q8 72 -22.5 121t-99 95.5t-177.5 107.5q-96 55 -175 110.5t-123 126t-36 167.5q10 90 67.5 166.5t163 122.5t261.5 46q143 0 226 -59t112 -145 q12 -33 7 -58.5t-30 -34.5q-25 -8 -47 2.5t-31 34.5q-25 66 -82 107t-149 41q-174 0 -272.5 -64.5t-108.5 -169.5q-6 -70 30 -117t108.5 -90t170.5 -100q98 -55 175 -117.5t119 -138.5t32 -172q-10 -106 -82 -176t-186.5 -102.5t-255.5 -32.5q-125 0 -206 57t-104 152 q-8 29 -2 54.5zM416 -102l166 1564q4 29 20 40t37 11q27 0 47.5 -17t15.5 -46l-163 -1565q-4 -27 -22 -40t-38 -13q-27 0 -46 16.5t-17 49.5z" />
<glyph unicode="%" horiz-adv-x="1699" vert-adv-y="0" d="M186 1069q0 100 35 192.5t94.5 164t135 113.5t159.5 42q113 0 176.5 -64.5t63.5 -168.5q0 -100 -35 -193.5t-94 -165t-135 -113.5t-160 -42q-113 0 -176.5 65.5t-63.5 169.5zM237 55.5q-1 24.5 19 50.5l1047 1420q16 23 32.5 39t38.5 16q27 0 42.5 -15.5t16.5 -39 t-20 -51.5l-1046 -1420q-16 -23 -32.5 -39t-39.5 -16q-25 0 -41 15.5t-17 40zM309 1092q0 -59 32.5 -103.5t100.5 -44.5q70 0 134.5 53.5t107.5 140.5t43 185q0 59 -32.5 104.5t-100.5 45.5q-76 0 -140.5 -57.5t-104.5 -144.5t-40 -179zM846 233q0 102 34.5 194.5t94 164.5 t135.5 114t160 42q113 0 176 -66t63 -168q0 -100 -34.5 -193.5t-94 -165t-135.5 -113.5t-160 -42q-113 0 -176 64.5t-63 168.5zM969 258q0 -59 32.5 -104t100.5 -45q70 0 134 53t107 140t43 187q0 59 -32.5 103.5t-100.5 44.5q-76 0 -140 -56.5t-104 -143.5t-40 -179z" />
<glyph unicode="&#x26;" horiz-adv-x="1347" vert-adv-y="0" d="M115 383q0 106 37.5 195.5t121.5 171t220 163.5l51 31q180 111 277.5 206t97.5 179q0 59 -52.5 100t-130.5 41q-82 0 -146.5 -26.5t-101 -72.5t-36.5 -105q0 -43 28.5 -107.5t65.5 -127t59 -99.5l473 -799q25 -39 28 -73.5t-24 -49.5q-18 -10 -36.5 -7t-34 16.5 t-27.5 33.5l-481 805q-27 45 -68 113.5t-72.5 146.5t-31.5 148q0 90 54 161.5t149.5 112.5t216.5 41q125 0 206.5 -64.5t81.5 -162.5q0 -80 -39.5 -158t-123.5 -155.5t-215 -157.5l-109 -66q-168 -100 -242.5 -201.5t-74.5 -228.5t63 -202.5t172 -75.5q152 0 287 123.5 t291 402.5q18 31 42.5 40t51.5 -7q29 -18 26.5 -46t-20.5 -61q-115 -201 -223.5 -324.5t-219 -181t-235.5 -57.5q-111 0 -190.5 46t-122.5 133t-43 206z" />
<glyph unicode="'" horiz-adv-x="442" vert-adv-y="0" d="M207 1284l26 244q4 27 23.5 40t40.5 13q27 0 45 -18.5t16 -53.5l-24 -241q-2 -27 -22.5 -39t-43.5 -12q-27 0 -45 17t-16 50z" />
<glyph unicode="(" horiz-adv-x="862" vert-adv-y="0" d="M127 487q12 119 55 254.5t113 275.5t163 274t204 249q35 33 64.5 40t45.5 -9q12 -12 8 -36t-32 -58q-133 -141 -240 -315.5t-174.5 -349.5t-83.5 -325q-27 -248 38.5 -525t237.5 -595q16 -31 15.5 -55.5t-19.5 -34.5q-20 -12 -41 -2t-39 39q-199 342 -270.5 634 t-44.5 539z" />
<glyph unicode=")" horiz-adv-x="862" vert-adv-y="0" d="M1 -682q5 25 34 57q133 141 239.5 315.5t174 349.5t81.5 325q29 250 -37.5 527t-236.5 593q-16 31 -16 55.5t18 34.5q20 12 40.5 2t39.5 -39q135 -229 210 -434t100.5 -389.5t6.5 -349.5q-16 -158 -86.5 -344.5t-185.5 -371t-264 -337.5q-33 -33 -63 -40t-46 7 q-14 14 -9 39z" />
<glyph unicode="*" horiz-adv-x="735" vert-adv-y="0" d="M203 1232.5q6 22.5 35 43.5l317 203q29 16 49.5 13t30.5 -15q10 -16 5 -39t-34 -41l-317 -205q-29 -16 -49.5 -14t-30.5 16q-12 16 -6 38.5zM228 1440.5q-3 21.5 10 34.5q10 14 30.5 16t42.5 -16l277 -207q25 -18 28.5 -38t-4.5 -34q-12 -14 -33.5 -15t-46.5 15l-274 205 q-27 18 -30 39.5zM354 1155l37 361q4 35 22.5 50t37.5 15q16 0 28.5 -15.5t7.5 -49.5l-36 -361q-4 -33 -23 -50t-37 -15q-14 4 -26.5 19t-10.5 46z" />
<glyph unicode="+" vert-adv-y="0" d="M170 555q0 20 16.5 36.5t49.5 16.5h552q33 0 49.5 -16.5t16.5 -36.5t-16.5 -37.5t-49.5 -17.5h-552q-33 0 -49.5 17.5t-16.5 37.5zM430 293l59 536q4 29 23.5 41.5t36.5 10.5q23 -2 37 -21.5t10 -54.5l-61 -537q-2 -29 -21 -41t-37 -12q-20 2 -34.5 22.5t-12.5 55.5z" />
<glyph unicode="," horiz-adv-x="440" vert-adv-y="0" d="M55 -172l25 240q4 31 23.5 44t43.5 9q16 0 29.5 -9.5t21 -25.5t5.5 -43l-25 -227q-4 -37 -26.5 -50.5t-45.5 -11.5q-14 2 -26 11.5t-19.5 24.5t-5.5 38z" />
<glyph unicode="-" horiz-adv-x="823" vert-adv-y="0" d="M125 487q0 27 20.5 41.5t53.5 14.5h360q35 0 53.5 -14.5t18.5 -41.5t-20.5 -42t-55.5 -15h-360q-33 0 -51.5 15.5t-18.5 41.5z" />
<glyph unicode="." horiz-adv-x="509" vert-adv-y="0" d="M82 98q0 41 28.5 68t69.5 27t68.5 -27t27.5 -68q0 -43 -27.5 -71.5t-68.5 -28.5t-69.5 28.5t-28.5 71.5z" />
<glyph unicode="/" horiz-adv-x="667" vert-adv-y="0" d="M-25 -20l553 1546q10 31 28.5 43t39.5 12q18 0 34.5 -10t24 -27.5t-3.5 -44.5l-551 -1546q-8 -25 -26.5 -36t-38.5 -11q-29 0 -50.5 20.5t-9.5 53.5z" />
<glyph unicode="0" horiz-adv-x="1136" vert-adv-y="0" d="M88 612q16 164 51 303.5t97.5 244t155.5 162.5t226 58q137 0 221.5 -63.5t127.5 -162.5t53 -213t0 -212q-23 -215 -88.5 -380t-174.5 -258t-265 -93q-154 0 -249.5 85t-133 225.5t-21.5 303.5zM209 596q-23 -236 59.5 -361.5t225.5 -125.5q96 0 165.5 50t117.5 136 t77 192.5t41 219.5q10 92 6 190t-31.5 182t-88 136.5t-163.5 52.5q-98 0 -165.5 -44t-111.5 -117t-69.5 -162t-40 -180t-22.5 -169z" />
<glyph unicode="1" horiz-adv-x="442" vert-adv-y="0" d="M80 68l135 1253q4 33 23.5 47t44.5 14q23 0 41 -15t14 -46l-135 -1266q-4 -31 -22.5 -43t-41.5 -12q-25 0 -43 17.5t-16 50.5z" />
<glyph unicode="2" horiz-adv-x="1009" vert-adv-y="0" d="M33 49.5q-2 20.5 10 36.5q53 68 124 154t145.5 176t141 171t115.5 139t66 81q41 51 78 110.5t61.5 117t24.5 104.5q0 59 -51.5 90t-129.5 31q-86 0 -181 -33t-156 -86q-45 -37 -74 -36t-43 17q-16 18 -17.5 43t37.5 60q51 43 122 78.5t150 57t154 21.5q90 0 160 -33.5 t110 -92t40 -130.5q0 -76 -46.5 -171t-136.5 -210q-31 -39 -97.5 -119.5t-151.5 -180t-167.5 -200t-148.5 -182.5l-14 58h583q37 0 51.5 -18.5t14.5 -41.5t-10.5 -42t-46.5 -19h-662q-23 0 -38 14.5t-17 35z" />
<glyph unicode="3" horiz-adv-x="1052" vert-adv-y="0" d="M42 125q-7 23 7 43q14 23 39 22.5t51 -18.5q41 -29 105.5 -46t134.5 -17q172 0 278.5 70.5t118.5 193.5q10 96 -25.5 159.5t-103 99.5t-158 51t-188.5 15q-20 0 -33.5 15.5t-13.5 36.5q0 23 13.5 38t33.5 15q117 0 223.5 22.5t178 79t83.5 158.5q8 78 -26.5 123t-95 64.5 t-134.5 19.5t-147.5 -21.5t-114.5 -42.5q-27 -12 -53.5 -11t-38.5 22q-12 18 -4 41.5t31 37.5q43 29 137 57.5t195 28.5q94 0 184 -34.5t145.5 -105.5t42.5 -181q-8 -84 -50 -148.5t-117.5 -106.5t-190.5 -58l4 18q119 -20 200 -73.5t117.5 -134.5t26.5 -183 q-18 -174 -155.5 -275.5t-356.5 -101.5q-96 0 -180 22.5t-131 61.5q-25 20 -32 43z" />
<glyph unicode="4" horiz-adv-x="1007" vert-adv-y="0" d="M80 532l86 791q4 35 24.5 47t40.5 12q23 0 41.5 -17t14.5 -50l-84 -801l-66 72h664q29 0 48 -15.5t19 -38.5q0 -20 -14 -37.5t-43 -17.5h-682q-20 0 -35.5 17.5t-13.5 37.5zM412 76l88 813q4 31 23.5 42t43.5 11q29 0 43.5 -19.5t10.5 -52.5l-89 -807q-2 -37 -22 -50 t-43 -13t-41 19.5t-14 56.5z" />
<glyph unicode="5" horiz-adv-x="985" vert-adv-y="0" d="M41 152q0 25 18.5 42t40.5 17q14 0 25.5 -10.5t19.5 -20.5q35 -31 97.5 -51t124.5 -20q102 0 182 47t126 133t46 200q0 117 -79 183.5t-214 66.5q-45 0 -96 -10t-135 -33q-27 -8 -48.5 11.5t-19.5 46.5l61 563q6 66 78 65h535q37 0 52 -17t15 -40q0 -20 -14 -36.5 t-51 -16.5h-572l80 74l-65 -586l-64 41q61 18 104.5 29.5t80.5 16.5t75 5q184 0 291 -88t107 -246q0 -166 -61.5 -282.5t-175 -177t-271.5 -60.5q-72 0 -144.5 26.5t-113.5 65.5q-35 35 -35 62z" />
<glyph unicode="6" horiz-adv-x="970" vert-adv-y="0" d="M78 379q0 311 62.5 535.5t179 346t276.5 121.5q76 0 143.5 -28.5t112.5 -81.5q14 -14 20.5 -33.5t-14.5 -44.5q-20 -23 -47 -18.5t-43 20.5q-31 35 -82 55.5t-113 20.5q-115 2 -198.5 -105.5t-129.5 -307.5t-46 -476q0 -119 66.5 -196.5t166.5 -77.5q76 0 135.5 49 t96 130t38.5 175q8 139 -48 212t-160 73q-84 0 -151 -47.5t-105.5 -130.5t-38.5 -187l-33 127q0 100 44 180t122 127t176 47q145 0 233 -97t84 -290q-4 -129 -56 -238.5t-142 -175t-213 -65.5q-88 0 -165 49t-124 136t-47 196z" />
<glyph unicode="7" horiz-adv-x="921" vert-adv-y="0" d="M131 50.5q-2 25.5 16 62.5l598 1224l39 -65h-551q-33 0 -49 17.5t-18 39.5q-2 20 12.5 36.5t46.5 16.5h588q35 0 48 -25.5t-3 -60.5l-598 -1233q-16 -33 -38.5 -48t-45.5 -15q-16 0 -29.5 12.5t-15.5 38z" />
<glyph unicode="8" horiz-adv-x="923" vert-adv-y="0" d="M68 324q0 92 29.5 165.5t98 144.5t187.5 157q86 63 164 120.5t128 111.5t50 107q0 66 -30.5 94.5t-82 37t-110.5 8.5q-53 0 -109.5 -16.5t-93.5 -53.5t-37 -102q0 -55 33 -106.5t75 -94.5t70 -72l74 -71q70 -66 125 -133.5t89 -132t34 -126.5q0 -111 -47 -192.5 t-129.5 -126.5t-188.5 -45q-70 0 -130 23.5t-105 66.5t-69.5 103.5t-24.5 132.5zM141 1090q0 104 55.5 168.5t139.5 94t172 29.5q82 0 159.5 -21.5t128 -75.5t50.5 -157q0 -74 -58.5 -144.5t-147.5 -139t-183 -135.5q-92 -68 -151.5 -124.5t-87.5 -114.5t-28 -136 q0 -117 61.5 -171t151.5 -54q106 0 171 61t65 192q0 55 -39 116t-91 119t-97 101l-37 37q-25 25 -64 63t-77.5 84t-65.5 99t-27 109z" />
<glyph unicode="9" horiz-adv-x="864" vert-adv-y="0" d="M127 969q14 139 66.5 231t130 137t168.5 45q72 0 131 -22.5t92 -56.5l-13 -113q-14 25 -45.5 43t-74.5 27.5t-93 9.5q-88 0 -156.5 -77t-84.5 -232q-8 -78 5 -152t50 -120t100 -46q49 0 91.5 38t75 98.5t57 128t39 128t18.5 99.5h14l-43 -396q-29 -57 -67.5 -104t-86 -76 t-100.5 -29q-80 0 -135 38t-89 100.5t-46 141.5t-4 159zM553 63l133 1266q4 27 22.5 40t39.5 13q25 0 43 -16t14 -49l-133 -1266q-2 -27 -21 -39t-39 -12q-25 0 -44 17.5t-15 45.5z" />
<glyph unicode=":" horiz-adv-x="516" vert-adv-y="0" d="M82 98q0 41 28.5 68t69.5 27t68.5 -27t27.5 -68q0 -43 -27.5 -71.5t-68.5 -28.5t-69.5 28.5t-28.5 71.5zM152 766q0 41 27.5 68.5t68.5 27.5q43 0 70.5 -27.5t27.5 -68.5t-27.5 -69.5t-70.5 -28.5q-41 0 -68.5 28.5t-27.5 69.5z" />
<glyph unicode=";" horiz-adv-x="516" vert-adv-y="0" d="M92 -172l25 240q4 31 23.5 44t43.5 9q16 0 29.5 -9.5t22 -23.5t6.5 -37l-31 -241q-2 -31 -20.5 -45.5t-38.5 -12.5q-16 2 -31 10.5t-23 25.5t-6 40zM152 766q0 41 27.5 68.5t68.5 27.5q43 0 70.5 -27.5t27.5 -68.5t-27.5 -69.5t-70.5 -28.5q-41 0 -68.5 28.5t-27.5 69.5z " />
<glyph unicode="&#x3c;" vert-adv-y="0" d="M193 598q0 16 9 28.5t23 20.5l541 248q35 16 55.5 3t24.5 -32q6 -20 -4.5 -39.5t-46.5 -35.5l-506 -234l8 74l426 -297q29 -20 32 -45t-14 -45q-14 -16 -37.5 -16t-52.5 20l-434 305q-14 10 -19 21.5t-5 23.5z" />
<glyph unicode="=" vert-adv-y="0" d="M143 367q0 20 16.5 38.5t49.5 18.5h553q33 0 49 -16.5t16 -36.5t-16 -39t-49 -19h-553q-33 0 -49.5 16.5t-16.5 37.5zM184 735q0 20 16.5 38t49.5 18h553q33 0 49 -16.5t16 -37.5q0 -20 -16 -37.5t-49 -17.5h-553q-33 0 -49.5 16.5t-16.5 36.5z" />
<glyph unicode="&#x3e;" vert-adv-y="0" d="M186 262q-4 23 6.5 41.5t45.5 34.5l507 233l-8 -71l-426 295q-27 23 -31 46t13 44q16 16 39.5 16t50.5 -20l434 -303q16 -8 20.5 -21.5t4.5 -26.5q0 -14 -9.5 -27.5t-25.5 -21.5l-539 -248q-35 -16 -55 -2.5t-27 31.5z" />
<glyph unicode="?" horiz-adv-x="1136" vert-adv-y="0" d="M197 1190q12 117 63 205t141.5 137t219.5 49q123 2 211 -44t135 -130t47 -203q0 -170 -66.5 -283.5t-178.5 -175t-251 -71.5l-18 -182q-6 -39 -26.5 -53.5t-45.5 -14.5q-20 0 -37.5 19.5t-15.5 45.5l26 246q2 20 18.5 34.5t37.5 14.5q94 0 173 27t138 79t92 131t33 181 q0 125 -72.5 196.5t-199.5 71.5q-104 0 -168 -44t-96.5 -111.5t-41.5 -136.5q-2 -39 -21.5 -53.5t-45.5 -14.5q-20 0 -36.5 20.5t-14.5 59.5zM301 98q0 41 28.5 68t69.5 27t69 -27t28 -68q0 -43 -28 -71.5t-69 -28.5t-69.5 28.5t-28.5 71.5z" />
<glyph unicode="@" horiz-adv-x="1544" vert-adv-y="0" d="M70.5 249q-19.5 134 19.5 294q57 227 176 393t283 255t354 89q143 0 253 -50t177.5 -140.5t88 -212t-14.5 -267.5q-31 -129 -99.5 -238.5t-150.5 -177t-160 -67.5q-61 0 -97 42t-41 121t22 187l112 441q10 33 29.5 47t52.5 14q31 0 40 -20.5t1 -49.5l-117 -458 q-16 -66 -20 -114t4 -74.5t27 -26.5q49 0 104 53t101.5 139t68.5 180q39 164 1 291t-138 198.5t-250 71.5q-158 0 -295 -76.5t-238.5 -222t-152.5 -350.5q-41 -166 -4 -304t137 -220t248 -82q63 0 135 15.5t127 31.5q23 8 51.5 3t36.5 -34q4 -23 -5 -44t-46 -31 q-55 -14 -136 -32t-157 -18q-145 0 -257 55.5t-181.5 155t-89 233.5zM428 545q33 131 95.5 230t147.5 155.5t181 56.5q82 0 121 -51t41 -145.5t-31 -221.5q-33 -131 -83 -230t-122 -155.5t-170 -56.5q-123 0 -175 114.5t-5 303.5zM539.5 308.5q23.5 -72.5 95.5 -72.5 q88 0 161.5 100t112.5 256q35 141 11.5 214t-95.5 73q-88 0 -162.5 -100.5t-113.5 -256.5q-33 -141 -9.5 -213.5z" />
<glyph unicode="A" horiz-adv-x="1073" vert-adv-y="0" d="M-51 32q-2 8 -2 17q0 20 12 49l639 1426q14 29 28.5 43t45.5 14q35 0 47 -16.5t16 -42.5l221 -1440q4 -33 -6 -55.5t-45 -26.5q-39 -2 -50 18.5t-15 49.5l-203 1392l39 -6l-606 -1395q-12 -29 -34.5 -48t-51.5 -11q-27 8 -35 32zM346 795l45 110h389l21 -110h-455z" />
<glyph unicode="B" horiz-adv-x="1224" vert-adv-y="0" d="M80 76l151 1440q4 35 20.5 49t47.5 16q68 4 131 4q180 0 312 -34q180 -46 266 -142q70 -79 70 -183q0 -23 -3 -48q-8 -59 -27.5 -114.5t-67.5 -103t-136 -84t-230.5 -61t-355.5 -35.5l10 88q215 8 347.5 37t203 72t99 97t36.5 114q1 11 1 22q1 72 -57 132 q-66 70 -204 107q-100 28 -239 28q-51 0 -107 -4l-141 -1360q346 4 538.5 99t208.5 249q1 11 1 23q1 92 -73 158q-82 76 -246 108q-97 19 -217 19q-81 0 -173 -9l10 106q84 6 161 6q167 0 297 -30q190 -44 284 -144q80 -86 80 -210q0 -22 -3 -46q-14 -137 -131 -236.5 t-321.5 -152.5t-483.5 -53q-27 0 -44 22.5t-15 53.5z" />
<glyph unicode="C" horiz-adv-x="1167" vert-adv-y="0" d="M100 381q-11 71 -12 151q0 134 31 295q45 238 134 410t211 264t265 92q96 0 164 -23.5t116 -57t81 -64.5q16 -14 24 -39t-14 -53q-23 -27 -52.5 -21t-48.5 21q-25 18 -64.5 48t-88.5 53.5t-109 23.5q-117 0 -215 -82t-170.5 -231.5t-109.5 -354.5q-29 -153 -29 -278 q-1 -53 5 -102q18 -161 87.5 -247t188.5 -86q98 0 174.5 40t131 101.5t85.5 120.5q23 41 45 59.5t53 2.5t30 -44t-26 -75q-37 -76 -108.5 -148.5t-167.5 -120.5t-207 -48q-168 0 -271 102.5t-133 290.5z" />
<glyph unicode="D" horiz-adv-x="1208" vert-adv-y="0" d="M80 66l153 1450q4 29 17.5 47t54.5 18h135q229 0 386 -94q158 -94 230 -263q53 -124 53 -281q0 -56 -7 -116q-29 -258 -127 -443t-267 -284.5t-411 -99.5h-156q-33 0 -48 19.5t-13 46.5zM207 113h82q317 0 486 187t208 538q5 48 5 93q0 129 -42 235q-57 144 -182 224 t-307 80h-107z" />
<glyph unicode="E" horiz-adv-x="1161" vert-adv-y="0" d="M80 66l153 1450q4 29 17.5 47t54.5 18h756q37 0 51 -16.5t14 -38.5q0 -20 -14 -38t-51 -18h-711l-141 -1357h696q37 0 51.5 -15.5t14.5 -38.5t-14.5 -41t-51.5 -18h-764q-33 0 -48 19.5t-13 46.5zM221 795l12 112h699q37 0 52 -16.5t15 -38.5q0 -20 -18 -38.5t-53 -18.5 h-707z" />
<glyph unicode="F" horiz-adv-x="1161" vert-adv-y="0" d="M80 66l153 1450q4 29 17.5 47t54.5 18h756q37 0 51 -16.5t14 -38.5q0 -20 -14 -38t-51 -18h-711l-147 -1409q-2 -18 -11.5 -39.5t-50.5 -21.5q-33 0 -48 19.5t-13 46.5zM223 795l13 112h673q37 0 53.5 -16.5t16.5 -38.5q0 -20 -16.5 -38.5t-53.5 -18.5h-686z" />
<glyph unicode="G" horiz-adv-x="1236" vert-adv-y="0" d="M94 383q-8 63 -8 133q0 141 31 313q45 238 139 409t228 263t294 92q84 0 157 -29.5t129 -72.5t87 -82q18 -25 21.5 -47.5t-19.5 -42.5q-20 -18 -45 -10t-45 28q-27 31 -64.5 64t-94 56.5t-142.5 23.5q-127 0 -233.5 -81t-181.5 -230.5t-111 -356.5q-24 -152 -24 -275 q0 -143 33 -246q62 -190 224 -190q57 0 123.5 44t137.5 130t138.5 216.5t124.5 302.5q4 12 8.5 22t11.5 18.5t17 12.5t27 4v-150q-57 -176 -126 -310t-144.5 -223t-160.5 -134t-177 -45q-152 0 -242 102.5t-113 290.5zM930 88l55 543l72 221q31 0 51 -17.5t16 -48.5 l-73 -698q-2 -37 -15.5 -63.5t-54.5 -24.5q-37 2 -46 25.5t-5 62.5z" />
<glyph unicode="H" horiz-adv-x="1259" vert-adv-y="0" d="M80 66l153 1450q4 29 20.5 47t51.5 18q31 0 42 -20.5t7 -55.5l-151 -1444q-2 -18 -11.5 -39.5t-50.5 -21.5q-33 0 -48 19.5t-13 46.5zM219 795l12 112h820l-13 -112h-819zM897 66l156 1462q4 18 16 35.5t45 17.5q37 0 51.5 -19.5t10.5 -50.5l-156 -1458 q-2 -16 -14.5 -34.5t-47.5 -18.5q-41 0 -52 22.5t-9 43.5z" />
<glyph unicode="I" horiz-adv-x="661" vert-adv-y="0" d="M80 55q0 23 12 40.5t49 17.5h217q35 0 50.5 -17.5t15.5 -40.5q0 -20 -11.5 -37.5t-47.5 -17.5h-218q-35 0 -51 17.5t-16 37.5zM184 0l168 1581h125l-170 -1581h-123zM233 1526q0 23 12.5 39t49.5 16h215q37 0 52.5 -16.5t15.5 -38.5q0 -20 -11.5 -38t-48.5 -18h-217 q-35 0 -51.5 17.5t-16.5 38.5z" />
<glyph unicode="J" horiz-adv-x="1044" vert-adv-y="0" d="M23.5 205q-3.5 24 17.5 45q20 20 45 15t45 -32q37 -45 87 -89t126 -44q80 0 136.5 41t92 129t50.5 230l110 1081h121l-109 -1081q-27 -270 -123 -391t-278 -121q-100 0 -175 51t-128 119q-14 23 -17.5 47zM618 1526q0 23 12.5 39t47.5 16h217q37 0 51.5 -16.5t14.5 -38.5 q0 -20 -10.5 -38t-47.5 -18h-217q-37 0 -52.5 17.5t-15.5 38.5z" />
<glyph unicode="K" horiz-adv-x="1136" vert-adv-y="0" d="M80 78l153 1438q4 29 19.5 47t52.5 18q35 0 44 -20.5t5 -55.5l-151 -1429q-2 -25 -12.5 -50.5t-49.5 -25.5q-33 0 -48 25.5t-13 52.5zM250 846l4 31l795 673q23 18 39 24.5t30 6.5q25 0 38 -11t13 -34q0 -14 -11 -31.5t-34 -40.5l-786 -657l12 102l649 -807 q20 -25 21 -47q0 -23 -16 -39t-41 -16q-23 0 -41.5 14.5t-32.5 32.5z" />
<glyph unicode="L" horiz-adv-x="1050" vert-adv-y="0" d="M80 66l153 1450q4 29 19.5 47t52.5 18q35 0 44 -20.5t5 -55.5l-145 -1392h661q35 0 50.5 -14.5t15.5 -39.5t-14.5 -42t-49.5 -17h-731q-33 0 -48 19.5t-13 46.5z" />
<glyph unicode="M" horiz-adv-x="1980" vert-adv-y="0" d="M-54 46.5q-1 21.5 11 45.5l694 1430q14 25 28.5 42t45.5 17q33 0 47 -15.5t16 -29.5l156 -1358l-39 6l647 1334q10 20 24.5 41.5t41.5 21.5q51 0 63.5 -19.5t14.5 -48.5l168 -1450q4 -27 -11.5 -45t-44.5 -18q-39 0 -51 20.5t-14 38.5l-156 1340l39 -6l-645 -1334 q-8 -14 -24.5 -36.5t-51.5 -22.5q-41 0 -53 20.5t-14 38.5l-154 1336l39 -9l-647 -1325q-16 -33 -37 -47t-41 -14q-23 0 -37 12.5t-15 34z" />
<glyph unicode="N" horiz-adv-x="1257" vert-adv-y="0" d="M80 66l153 1450q4 29 16.5 47t51.5 18q35 0 52.5 -13.5t25.5 -35.5l582 -1339l-52 -11l142 1334q4 29 19 47t52 18q35 0 45.5 -20.5t6.5 -55.5l-154 -1444q-4 -29 -13.5 -45t-43.5 -16q-47 0 -68 43l-600 1382l51 11l-143 -1368q-2 -20 -11.5 -44t-50.5 -24 q-33 0 -48 19.5t-13 46.5z" />
<glyph unicode="O" horiz-adv-x="1177" vert-adv-y="0" d="M100 727q29 285 100.5 477.5t187.5 290.5t271 98q141 0 241 -99q102 -99 148 -268q31 -113 30 -246q0 -66 -7 -136q-29 -283 -101.5 -473.5t-187 -286.5t-274.5 -96q-139 0 -238.5 97t-145.5 264q-31 113 -31 246q0 64 7 132zM221 711q-5 -59 -5 -113q0 -108 20 -200 q32 -138 104 -218t170 -80q121 0 210 86t146.5 255t81.5 421q6 62 6 120q0 104 -20 194q-32 140 -103 222.5t-172 82.5q-121 0 -210 -87t-145 -259t-83 -424z" />
<glyph unicode="P" horiz-adv-x="1169" vert-adv-y="0" d="M80 76l153 1440q4 31 19.5 48t52.5 17q252 0 435 -47q182 -46 277 -142q83 -83 82 -206q0 -18 -1 -37q-10 -100 -59.5 -173t-130.5 -124t-188.5 -81t-235.5 -43t-269 -13l8 110q160 0 294 16.5t232.5 55.5t157 103.5t68.5 160.5q1 13 1 25q0 127 -153 200 q-168 80 -473 84l-147 -1400q-2 -16 -11.5 -43t-50.5 -27q-33 0 -48 24.5t-13 51.5z" />
<glyph unicode="Q" horiz-adv-x="1177" vert-adv-y="0" d="M100 727q29 285 100.5 477.5t187.5 290.5t271 98q141 0 241.5 -99t147.5 -268q31 -113 31 -246q0 -66 -8 -136q-29 -283 -101.5 -473.5t-187 -286.5t-274.5 -96q-139 0 -238.5 97t-145.5 264q-31 113 -31 246q0 64 7 132zM221 711q-5 -59 -5 -113q0 -108 20 -200 q32 -138 104 -218t170 -80q121 0 210 86t146.5 255t81.5 421q6 62 6 120q0 104 -20 194q-33 139 -103.5 222t-171.5 83q-121 0 -210 -87t-145 -259t-83 -424zM581.5 412.5q-3.5 29.5 16.5 44.5q25 23 54.5 12.5t56.5 -51.5l270 -365q23 -31 22 -58.5t-26 -43.5 q-20 -14 -48 -4t-50 39l-269 364q-23 33 -26.5 62.5z" />
<glyph unicode="R" horiz-adv-x="1142" vert-adv-y="0" d="M80 80l151 1436q4 29 17.5 47t52.5 18q262 0 438 -39t261 -126q74 -76 74 -199q0 -17 -1 -35q-8 -96 -75.5 -177t-183.5 -140.5t-268.5 -92.5t-330.5 -33l8 107q201 0 361.5 48t259 127t108.5 173q1 13 1 25q0 77 -55 129q-64 60 -201.5 90t-348.5 32l-145 -1394 q-4 -27 -13.5 -51.5t-50.5 -24.5q-33 0 -47 24.5t-12 55.5zM238 784l141 17l536 -680q23 -27 28 -48.5t1 -35.5q-2 -14 -18.5 -25.5t-34.5 -11.5q-14 0 -35.5 11.5t-40.5 35.5z" />
<glyph unicode="S" horiz-adv-x="1026" vert-adv-y="0" d="M37 253.5q6 25.5 33 33.5t50 -3.5t32 -41.5q10 -37 42.5 -70t88 -52.5t131.5 -19.5q86 0 163.5 34t132 102.5t64.5 175.5q1 15 1 30q1 103 -61 184q-70 93 -233 185q-72 41 -135 88t-110 103q-48 56 -72 118q-19 50 -18 106q0 14 1 29q10 90 67.5 167t163 124t261.5 47 q143 0 227 -60t113 -147q10 -33 5 -58t-30 -34q-25 -8 -46 2.5t-31 34.5q-25 66 -82.5 108t-149.5 42q-174 0 -271.5 -65.5t-109.5 -170.5q-1 -10 -1 -19q0 -57 31 -107q36 -58 108.5 -111.5t170.5 -110.5q98 -55 175 -128t117 -165q31 -71 31 -158q0 -26 -3 -53 q-20 -205 -162.5 -305t-355.5 -100q-84 0 -154.5 26.5t-118 74.5t-63.5 110q-8 29 -2 54.5z" />
<glyph unicode="T" horiz-adv-x="1208" vert-adv-y="0" d="M160 1526q0 23 12 39t49 16h909q37 0 51.5 -16.5t14.5 -38.5q0 -20 -10 -38t-47 -18h-910q-37 0 -53 17.5t-16 38.5zM467 90l151 1428h121l-151 -1436q-2 -29 -16.5 -55.5t-51.5 -26.5q-33 0 -44 26q-9 22 -9 53v11z" />
<glyph unicode="U" horiz-adv-x="1251" vert-adv-y="0" d="M131 555l100 954q4 29 21.5 50.5t46.5 21.5t44 -23.5t11 -52.5l-100 -958q-4 -39 -4 -76q0 -81 22 -151q32 -100 100 -159t163 -59q102 0 190 60.5t146.5 167t72.5 239.5l103 955q2 23 15 40t46 17t48 -17.5t11 -45.5l-98 -949q-16 -166 -93 -297t-192 -206.5t-252 -75.5 q-131 0 -227 73.5t-143 201.5q-35 95 -35 210q0 39 4 80z" />
<glyph unicode="V" horiz-adv-x="1019" vert-adv-y="0" d="M115 1518q-4 29 8 46t45 17q41 0 53 -19.5t15 -37.5l163 -1112l29 -273l-31 4l95 273l436 1106q12 31 29.5 45t52.5 14q29 0 43 -20.5t-2 -57.5l-576 -1442q-10 -27 -22 -44t-47 -17q-33 0 -49.5 22.5t-20.5 45.5z" />
<glyph unicode="W" horiz-adv-x="1847" vert-adv-y="0" d="M115 1518q-4 29 8 46t45 17q41 0 53 -19.5t15 -37.5l157 -1063l35 -322l-31 4l109 318l414 1063q8 20 25.5 38.5t45.5 18.5q43 0 56.5 -18.5t15.5 -38.5l158 -1057l32 -340l-28 4l108 326l422 1065q14 35 28.5 47t49.5 12q25 0 43 -19.5t2 -58.5l-580 -1442 q-10 -27 -22 -44t-47 -17q-31 0 -46.5 19.5t-19.5 41.5l-170 1135l-26 254l28 -2l-73 -244l-447 -1141q-8 -20 -21.5 -41.5t-50.5 -21.5q-25 0 -44 19.5t-23 48.5z" />
<glyph unicode="X" horiz-adv-x="1114" vert-adv-y="0" d="M6.5 49q-4.5 23 9.5 43l502 762l17 2l450 694q18 29 48 32t50 -13q16 -12 19.5 -36t-15.5 -52l-489 -748h-14l-463 -702q-10 -16 -27.5 -24.5t-34 -5.5t-30.5 13q-18 12 -22.5 35zM169 1549.5q5 21.5 26 29.5q20 10 52 1t46 -44l311 -696l338 -754q12 -27 3 -47.5 t-25 -30.5q-14 -8 -34 -7t-35 12.5t-26 35.5l-315 701l-332 743q-14 35 -9 56.5z" />
<glyph unicode="Y" horiz-adv-x="1103" vert-adv-y="0" d="M114 1543.5q5 23.5 38 33.5q35 12 55 -5.5t29 -39.5l380 -825l-81 -121l-414 905q-12 29 -7 52.5zM164 49q-2 23 12 43l850 1452q16 29 37.5 35t44.5 -4q27 -14 33 -40t-11 -54l-854 -1452q-10 -18 -26.5 -25.5t-34 -3.5t-31.5 14q-18 12 -20 35z" />
<glyph unicode="Z" horiz-adv-x="1157" vert-adv-y="0" d="M32 51.5q-3 22.5 11 42.5l956 1428l33 -52h-778q-37 0 -52.5 14.5t-17.5 37.5t11.5 41t50.5 18h815q23 0 39 -13.5t21 -36t-11 -50.5l-950 -1420l-31 52h774q37 0 50.5 -14.5t15.5 -37.5t-10.5 -42t-49.5 -19h-811q-29 0 -46 14.5t-20 37z" />
<glyph unicode="[" horiz-adv-x="790" vert-adv-y="0" d="M2 -664l231 2180q4 29 20.5 47t51.5 18h334q35 0 52.5 -17.5t17.5 -37.5t-15.5 -36.5t-46.5 -16.5h-293l-223 -2094h275q35 0 50 -16t15 -37q4 -20 -11.5 -37.5t-45.5 -17.5h-353q-33 0 -47 19.5t-12 45.5z" />
<glyph unicode="\" horiz-adv-x="667" vert-adv-y="0" d="M68 1505q-12 35 9 55.5t50 20.5q20 0 38.5 -11t27.5 -38l552 -1544q14 -39 -7 -60.5t-50 -21.5q-20 0 -38.5 12t-28.5 43z" />
<glyph unicode="]" horiz-adv-x="790" vert-adv-y="0" d="M2 -674q0 20 16.5 36.5t47.5 16.5h288l226 2094h-273q-33 0 -51 16t-20 37q-2 20 14 37.5t49 17.5h344q35 0 51.5 -18.5t12.5 -46.5l-232 -2180q-4 -29 -18.5 -47t-55.5 -18h-327q-35 0 -52.5 17.5t-19.5 37.5z" />
<glyph unicode="^" horiz-adv-x="999" vert-adv-y="0" d="M154 756.5q0 23.5 22 42.5l324 270q25 23 52.5 19.5t41.5 -19.5l225 -268q18 -20 15 -46t-21 -42q-16 -14 -40.5 -15.5t-45.5 23.5l-238 285l103 -11l-334 -280q-29 -23 -51.5 -18t-38.5 20q-14 16 -14 39.5z" />
<glyph unicode="_" horiz-adv-x="1064" vert-adv-y="0" d="M59 -139q0 29 20.5 43t53.5 14h604q33 0 51.5 -14.5t18.5 -42.5q0 -27 -19.5 -41.5t-54.5 -14.5h-604q-33 0 -51.5 14.5t-18.5 41.5z" />
<glyph unicode="`" horiz-adv-x="1216" vert-adv-y="0" d="M500 1394q4 19 20.5 31.5t34.5 12.5q20 0 40.5 -10.5t33.5 -32.5l100 -234q8 -16 9 -30.5t-5 -23.5t-16 -15q-14 -8 -36 -1.5t-38 33.5l-133 224q-14 27 -10 46z" />
<glyph unicode="a" horiz-adv-x="856" vert-adv-y="0" d="M43 428q16 141 68.5 237.5t130 146.5t168.5 50q53 0 115.5 -24.5t107.5 -75.5l-12 -113q-35 53 -98.5 77t-116.5 24q-88 0 -156 -86t-84 -242q-3 -32 -3 -63q0 -47 7 -89q12 -72 50 -116.5t102 -44.5q51 0 96 46t83 118.5t64.5 157.5t40.5 163l-35 -395 q-20 -43 -46.5 -79t-59.5 -63.5t-69 -43t-77 -15.5q-106 0 -171 64q-64 64 -90 162q-18 71 -18 145q0 29 3 59zM547 68l76 718q4 33 24.5 49.5t42.5 16.5q23 0 41.5 -18.5t13.5 -55.5l-75 -710q-4 -33 -23.5 -50.5t-42.5 -17.5q-25 0 -42 17.5t-15 50.5z" />
<glyph unicode="b" horiz-adv-x="864" vert-adv-y="0" d="M55 66l156 1464q4 29 22.5 40t38.5 11q27 0 46.5 -17.5t15.5 -45.5l-156 -1465q-4 -27 -22.5 -40t-38.5 -13q-27 0 -45.5 16.5t-16.5 49.5zM147 80l13 113q25 -35 61.5 -53.5t78.5 -24.5t75 -6q90 0 157.5 78.5t83.5 234.5q3 30 3 60q0 48 -8 94q-13 74 -50 124t-100 50 q-43 0 -85 -43t-79 -109t-63.5 -136.5t-43.5 -125.5l19 307q41 84 106.5 151.5t147.5 67.5q106 0 171 -68q64 -68 90 -170q17 -68 17 -139q0 -35 -4 -71q-14 -139 -66.5 -232.5t-130 -138.5t-167.5 -45q-55 0 -116.5 15.5t-109.5 66.5z" />
<glyph unicode="c" horiz-adv-x="763" vert-adv-y="0" d="M43 428q16 141 68.5 237.5t130 146.5t168.5 50q74 0 129 -38t90 -91q8 -14 3 -36.5t-28 -34.5q-25 -12 -44 -6t-30 20q-18 31 -49.5 52.5t-74.5 21.5q-88 0 -156 -86t-84 -242q-3 -30 -3 -60q0 -48 8 -92q13 -72 53 -116.5t108 -44.5q47 0 94 35.5t80 101.5 q10 18 33.5 24t46.5 -8q23 -12 29 -34.5t-5 -41.5q-45 -82 -117 -135t-174 -53q-106 0 -171 64q-64 64 -90 162q-18 71 -18 145q0 29 3 59z" />
<glyph unicode="d" horiz-adv-x="880" vert-adv-y="0" d="M43 428q16 141 68.5 237.5t130 146.5t168.5 50q53 0 115.5 -24.5t107.5 -75.5l-12 -113q-35 53 -98.5 77t-116.5 24q-88 0 -156 -86t-84 -242q-3 -32 -3 -63q0 -47 7 -89q12 -72 50 -116.5t102 -44.5q51 0 96 46t83 118.5t64.5 157.5t40.5 163l-35 -395 q-20 -43 -46.5 -79t-59.5 -63.5t-69 -43t-77 -15.5q-106 0 -171 64q-64 64 -90 162q-18 71 -18 145q0 29 3 59zM547 68l151 1448q4 35 24.5 50t43.5 15t40 -18.5t13 -53.5l-149 -1441q-4 -33 -23.5 -50.5t-42.5 -17.5q-25 0 -42 17.5t-15 50.5z" />
<glyph unicode="e" horiz-adv-x="763" vert-adv-y="0" d="M43 428q16 141 68.5 237.5t130 146.5t168.5 50q59 0 111 -23.5t85 -61.5t33 -83q0 -47 -46 -103t-120 -113.5t-157 -112t-156 -101.5l-15 119q55 35 120 78t122 87t93 80t36 56q0 23 -26.5 44.5t-83.5 21.5q-88 0 -156 -86t-84 -242q-3 -30 -3 -60q0 -48 8 -92 q13 -72 53 -116.5t108 -44.5q47 0 94 35.5t80 101.5q10 18 33.5 24t46.5 -8q23 -12 29 -34.5t-5 -41.5q-45 -82 -117 -135t-174 -53q-80 0 -136 37t-90 99t-46 138q-7 46 -7 93q0 31 3 63z" />
<glyph unicode="f" horiz-adv-x="561" vert-adv-y="0" d="M-12 799q0 23 13 38t54 15h420q35 0 50.5 -15.5t15.5 -37.5q0 -23 -11.5 -40.5t-48.5 -17.5h-426q-35 0 -51 17.5t-16 40.5zM98 68l127 1214q16 150 88 224.5t174 74.5q74 0 129.5 -34t90.5 -87q8 -14 3 -35.5t-28 -35.5q-25 -12 -44.5 -6t-29.5 20q-18 33 -50 50t-75 17 q-55 0 -91 -54t-46 -156l-127 -1194q-2 -20 -14 -43t-45 -23t-48.5 23.5t-13.5 44.5z" />
<glyph unicode="g" horiz-adv-x="856" vert-adv-y="0" d="M-20.5 -582.5q2.5 23.5 28.5 41.5q16 10 34.5 8t33.5 -16q65 -69 175 -69h3q102 0 171 86t83 233l115 1085q4 33 24.5 49.5t42.5 16.5q23 0 41.5 -18.5t13.5 -55.5l-114 -1077q-23 -199 -124 -314.5t-257 -115.5q-70 0 -137.5 26.5t-112.5 71.5q-23 25 -20.5 48.5z M43 428q16 141 68.5 237.5t130 146.5t168.5 50q53 0 115.5 -24.5t107.5 -75.5l-12 -113q-35 53 -98.5 77t-116.5 24q-88 0 -156 -86t-84 -242q-3 -32 -3 -63q0 -46 7 -89q12 -71 50 -116t102 -45q51 0 96 46t83 118.5t64.5 157.5t40.5 163l-35 -395q-20 -43 -46.5 -79 t-59.5 -63.5t-69 -43t-77 -15.5q-106 0 -170.5 63.5t-90.5 162.5q-18 70 -18 145q0 29 3 59z" />
<glyph unicode="h" horiz-adv-x="841" vert-adv-y="0" d="M53 55l156 1461q4 35 25.5 50t46.5 15q23 0 39 -15.5t12 -49.5l-156 -1461q-4 -29 -23 -42t-44 -13q-23 0 -40.5 14.5t-15.5 40.5zM164 276l22 273q72 145 152 229t180 84q104 0 156 -78q39 -60 39 -154q0 -29 -4 -61l-62 -493q-2 -25 -10 -50.5t-55 -25.5 q-39 0 -48.5 23.5t-5.5 52.5l58 493q3 26 3 49q1 46 -13 77q-20 46 -66 46q-76 0 -153.5 -106.5t-192.5 -358.5z" />
<glyph unicode="i" horiz-adv-x="391" vert-adv-y="0" d="M59 68l74 718q4 33 24.5 49.5t45.5 16.5q23 0 40 -18.5t13 -55.5l-76 -710q-2 -33 -22 -50.5t-43 -17.5q-25 0 -42.5 17.5t-13.5 50.5zM129 1137q0 39 27.5 65.5t66.5 26.5q37 0 64.5 -25.5t27.5 -66.5q0 -39 -26.5 -68t-65.5 -29q-35 0 -64.5 29t-29.5 68z" />
<glyph unicode="j" horiz-adv-x="391" vert-adv-y="0" d="M-510 -579.5q2 24.5 29 40.5q16 12 34.5 9.5t32.5 -17.5q31 -31 79 -50t99 -19q102 0 171 86t85 233l113 1083q4 33 24.5 49.5t45.5 16.5q23 0 40 -18.5t13 -55.5l-115 -1075q-20 -199 -121.5 -314.5t-257.5 -115.5q-72 0 -139 26.5t-112 71.5q-23 25 -21 49.5zM129 1137 q0 39 27.5 65.5t66.5 26.5q37 0 64.5 -25.5t27.5 -66.5q0 -39 -26.5 -68t-65.5 -29q-35 0 -64.5 29t-29.5 68z" />
<glyph unicode="k" horiz-adv-x="833" vert-adv-y="0" d="M55 63l156 1450q4 31 19.5 49.5t41.5 18.5q29 0 47.5 -15.5t14.5 -54.5l-156 -1448q-4 -35 -22 -49t-47 -14q-23 0 -39.5 17.5t-14.5 45.5zM145 373l13 147l399 299q43 33 73 33h3q23 0 37 -12.5t14 -34.5q-2 -14 -12 -31.5t-33 -34.5zM166 449l92 79l391 -424 q16 -16 19.5 -31.5t1.5 -29.5q-4 -20 -21 -31.5t-33 -11.5q-25 0 -42 14.5t-33 32.5z" />
<glyph unicode="l" horiz-adv-x="393" vert-adv-y="0" d="M55 63l156 1450q4 31 19.5 49.5t41.5 18.5q29 0 47.5 -15.5t14.5 -54.5l-156 -1448q-4 -35 -22 -49t-47 -14q-23 0 -39.5 17.5t-14.5 45.5z" />
<glyph unicode="m" horiz-adv-x="1247" vert-adv-y="0" d="M31 76l82 710q4 33 22.5 49.5t54.5 16.5q31 0 39.5 -17.5t3.5 -48.5l-81 -710q-4 -25 -10.5 -50.5t-53.5 -25.5q-39 0 -49 23.5t-8 52.5zM141 276l25 273q70 145 137.5 229t167.5 84q103 0 155 -78q39 -60 40 -154q0 -29 -4 -61l-62 -493q-2 -25 -10 -50.5t-55 -25.5 q-39 0 -47.5 23.5t-6.5 52.5l60 493q3 25 3 47q0 47 -14 79q-22 46 -65 46q-51 0 -96 -46t-97.5 -148.5t-130.5 -270.5zM594 276l24 273q70 145 137.5 229t168.5 84q104 0 155 -78q39 -60 39 -153q0 -29 -4 -62l-61 -493q-2 -25 -10.5 -50.5t-55.5 -25.5q-39 0 -47 23.5 t-6 52.5l59 493q3 26 3 48q0 47 -14 78q-21 46 -64 46q-51 0 -96.5 -46t-97.5 -148.5t-130 -270.5z" />
<glyph unicode="n" horiz-adv-x="819" vert-adv-y="0" d="M31 76l82 710q4 33 22.5 49.5t54.5 16.5q31 0 39.5 -17.5t3.5 -48.5l-81 -710q-4 -25 -10.5 -50.5t-53.5 -25.5q-39 0 -49 23.5t-8 52.5zM141 276l25 273q70 145 149.5 229t180.5 84q104 0 155 -78q39 -60 39 -153q0 -29 -4 -62l-61 -493q-2 -25 -10.5 -50.5t-55.5 -25.5 q-39 0 -47 23.5t-6 52.5l59 493q3 25 3 47q0 47 -14 79q-22 46 -65 46q-76 0 -154.5 -106.5t-193.5 -358.5z" />
<glyph unicode="o" horiz-adv-x="811" vert-adv-y="0" d="M43 428q23 211 127 322.5t240 111.5q106 0 170 -64q64 -63 90 -162q17 -67 18 -139q0 -34 -4 -69q-10 -102 -54 -201.5t-121 -164t-190 -64.5q-106 0 -171 64q-64 64 -90 162q-18 71 -18 145q0 29 3 59zM166 422q-3 -30 -3 -60q0 -48 8 -92q13 -72 53 -116.5t108 -44.5 q49 0 98 39.5t85 112.5t46 171q2 25 2 53q0 21 -1 43q-3 54 -19.5 105t-49 84t-87.5 33q-88 0 -156 -86t-84 -242z" />
<glyph unicode="p" horiz-adv-x="858" vert-adv-y="0" d="M-43 -657l149 1441q4 33 25 50.5t41 17.5q25 0 43 -16.5t14 -51.5l-151 -1448q-2 -33 -23.5 -49t-44.5 -16t-40 17.5t-13 54.5zM143 90l13 125q35 -53 99 -79.5t116 -26.5q90 0 156.5 82.5t82.5 238.5q4 35 4 68q0 44 -7 84q-13 73 -51 120.5t-101 47.5 q-51 0 -96.5 -47.5t-82 -122t-64.5 -159.5t-42 -163l35 393q20 43 47 81t59.5 67.5t69.5 46t76 16.5q106 0 170.5 -65.5t90.5 -166.5q18 -72 18 -147q0 -29 -3 -59q-14 -139 -67.5 -234.5t-131 -143.5t-167.5 -48q-53 0 -115 20.5t-109 71.5z" />
<glyph unicode="q" horiz-adv-x="856" vert-adv-y="0" d="M43 428q16 141 68.5 237.5t130 146.5t168.5 50q53 0 115.5 -24.5t107.5 -75.5l-12 -113q-35 53 -98.5 77t-116.5 24q-88 0 -156 -86t-84 -242q-3 -32 -3 -63q0 -46 7 -89q12 -71 50 -116t102 -45q51 0 96 46t83 118.5t64.5 157.5t40.5 163l-35 -395q-20 -43 -46.5 -79 t-59.5 -63.5t-69 -43t-77 -15.5q-106 0 -170.5 63.5t-90.5 162.5q-18 70 -18 145q0 29 3 59zM469 -662l154 1448q4 33 24.5 49.5t42.5 16.5q23 0 41.5 -18.5t13.5 -55.5l-139 -1300l101 82q23 18 39 24t30 6q23 0 38 -12t15 -35q0 -16 -11 -36.5t-34 -38.5l-215 -179 q-10 -8 -21.5 -13t-21.5 -5q-25 0 -42 16.5t-15 50.5z" />
<glyph unicode="r" horiz-adv-x="724" vert-adv-y="0" d="M31 66l75 720q4 33 26 49.5t44 16.5q23 0 40 -18.5t13 -55.5l-75 -712q-4 -33 -23.5 -49.5t-42.5 -16.5q-25 0 -42 16.5t-15 49.5zM137 276l23 269q76 158 153.5 237.5t178.5 79.5q72 0 117.5 -48t62.5 -116q8 -35 -4.5 -53.5t-32.5 -28.5q-20 -12 -47 -6t-31 27 q-8 41 -24.5 72.5t-49.5 31.5q-49 0 -100 -47t-110.5 -148.5t-135.5 -269.5z" />
<glyph unicode="s" horiz-adv-x="724" vert-adv-y="0" d="M20 148.5q-12 27.5 9 50.5q23 27 44 27.5t46 -21.5q37 -31 92 -58.5t125 -27.5q57 0 88 27.5t31 74.5q0 31 -17.5 57.5t-64.5 61.5t-142 90q-76 45 -114.5 95t-38.5 126q0 94 70.5 152.5t191.5 58.5q49 0 106.5 -16.5t118.5 -54.5q35 -20 49.5 -54.5t-2.5 -58.5 q-14 -25 -40.5 -23t-55.5 23q-31 23 -79 42t-113 19q-59 0 -92 -24.5t-33 -65.5q0 -39 26.5 -64.5t83.5 -58.5q111 -66 169.5 -110.5t79 -87.5t20.5 -103q0 -70 -31 -121t-85 -78.5t-130 -27.5q-88 0 -155.5 26.5t-115.5 69.5q-29 27 -41 54.5z" />
<glyph unicode="t" horiz-adv-x="681" vert-adv-y="0" d="M16 799q0 23 12.5 38t49.5 15h493q37 0 51.5 -15.5t14.5 -37.5q0 -23 -10.5 -40.5t-46.5 -17.5h-494q-37 0 -53.5 17.5t-16.5 40.5zM172 59l137 1272q4 25 22.5 38t39.5 13q25 0 44 -16t15 -49l-135 -1262q-4 -29 -21.5 -42t-40.5 -13t-43 15.5t-18 43.5z" />
<glyph unicode="u" horiz-adv-x="817" vert-adv-y="0" d="M53 283l60 503q2 20 12 43t51 23t49 -22.5t4 -49.5l-53 -497q-2 -22 -2 -42q0 -46 12 -78q18 -46 64 -46q51 0 103.5 41t113.5 138t137 263l-22 -266q-76 -131 -157 -213t-181 -82q-106 0 -156 83q-39 65 -38 151q0 25 3 51zM508 66l78 720q2 20 14 43t51 23t49.5 -22.5 t6.5 -49.5l-76 -714q-4 -33 -21.5 -49.5t-54.5 -16.5q-31 0 -40 17.5t-7 48.5z" />
<glyph unicode="v" horiz-adv-x="681" vert-adv-y="0" d="M37 750q-3 16 -3 30q0 28 11 46q16 26 49 26q18 0 34.5 -13.5t23.5 -39.5l112 -627l-20 6l274 621q16 31 32.5 42t35.5 11q23 0 38 -12.5t19 -35t-10 -52.5l-326 -705q-14 -29 -30.5 -38t-38.5 -9q-20 0 -38 11t-22 40z" />
<glyph unicode="w" horiz-adv-x="1173" vert-adv-y="0" d="M37 750q-3 16 -3 30q0 28 11 46q16 26 49 26q18 0 34.5 -12.5t18.5 -28.5l117 -639l-18 6l282 639q8 16 23.5 25.5t34.5 9.5q18 0 34.5 -12.5t18.5 -28.5l121 -639l-21 6l281 639q8 16 23.5 26.5t33.5 8.5q35 -4 51 -28q7 -11 8 -26q0 -19 -12 -46l-325 -705 q-14 -29 -30.5 -38t-39.5 -9q-20 0 -37.5 11.5t-21.5 39.5l-115 613l27 -5l-275 -612q-14 -29 -30.5 -38t-38.5 -9q-20 0 -38 11t-22 40z" />
<glyph unicode="x" horiz-adv-x="765" vert-adv-y="0" d="M8 62.5q4 27.5 27 56.5l270 362l17 13l245 329q12 16 26.5 22.5t27.5 6.5q33 0 47 -17.5t12 -43t-23 -52.5l-268 -354l-16 -12l-248 -330q-16 -20 -31.5 -31.5t-38.5 -11.5q-27 0 -39 17.5t-8 45zM86 805q4 22 21.5 34.5t35.5 12.5t35 -12.5t27 -28.5l180 -336l193 -356 q19 -36 19 -63q1 -12 -3 -22q-12 -34 -53 -34q-18 0 -32.5 11.5t-31.5 39.5l-178 326l-201 375q-16 31 -12 53z" />
<glyph unicode="y" horiz-adv-x="817" vert-adv-y="0" d="M-59.5 -582.5q2.5 23.5 28.5 41.5q16 10 35 8t33 -16q65 -69 175 -69h3q102 0 171 86t83 233l115 1085q4 33 24.5 49.5t42.5 16.5q23 0 41.5 -18.5t14.5 -55.5l-115 -1077q-23 -199 -124 -314.5t-257 -115.5q-70 0 -137.5 26.5t-112.5 71.5q-23 25 -20.5 48.5zM51 283 l55 497q2 20 16.5 45t49.5 27q37 2 47 -21.5t6 -50.5l-53 -497q-1 -16 -1 -31q0 -47 13 -85q19 -50 64 -50q51 0 102 45t110.5 145.5t135.5 265.5l-23 -288q-76 -129 -153.5 -208t-177.5 -79q-106 0 -154 83q-39 67 -39 156q0 22 2 46z" />
<glyph unicode="z" horiz-adv-x="794" vert-adv-y="0" d="M33 60.5q-4 25.5 14 45.5l522 682l29 -59h-422q-37 0 -53.5 20.5t-16.5 41.5q0 23 12.5 42t49.5 19h475q25 0 41 -15.5t19 -38t-15 -46.5l-530 -689l-29 58h436q35 0 50.5 -18.5t15.5 -41.5t-11.5 -42t-48.5 -19h-479q-23 0 -39 17.5t-20 43z" />
<glyph unicode="{" horiz-adv-x="901" vert-adv-y="0" d="M127 500q2 29 24.5 46t53.5 38q59 45 93 90t42 98q8 45 2 118t-13 156.5t-4 160.5t29 130q31 61 92.5 108.5t129 79t114.5 44.5q41 14 80 2t45 -41q8 -25 -14.5 -49.5t-50.5 -32.5q-82 -20 -165 -52t-118 -98q-27 -49 -28 -121.5t9.5 -151.5t18.5 -149.5t2 -119.5 q-12 -80 -54 -142.5t-141 -134.5q78 -96 106 -171t21 -154q-2 -49 -23.5 -118t-47 -143.5t-41 -147.5t-6.5 -130q10 -66 38.5 -106.5t71.5 -71.5t90 -66q29 -16 37 -48t-12 -48q-18 -18 -48 -15.5t-59 25.5q-43 33 -96 83t-94 111.5t-53 131.5q-8 59 6 135t37.5 153.5 t45 149.5t25.5 123q6 102 -86 221q-20 29 -39.5 51.5t-19.5 55.5z" />
<glyph unicode="|" horiz-adv-x="491" vert-adv-y="0" d="M27 -664l245 2298q4 35 25.5 52.5t42.5 17.5q25 0 42 -18.5t11 -59.5l-241 -2296q-2 -18 -11.5 -38.5t-50.5 -20.5q-33 0 -49 19.5t-14 45.5z" />
<glyph unicode="}" horiz-adv-x="901" vert-adv-y="0" d="M2 -690q-4 25 16.5 49.5t51.5 32.5q82 20 164.5 53t115.5 98q27 49 29 132t-7.5 176.5t-17.5 176.5t-2 130q14 80 56.5 143.5t138.5 134.5q-74 96 -103.5 171t-25.5 155q4 49 25.5 105.5t45 116.5t39 121.5t7.5 119.5q-8 66 -38 106.5t-72 71.5t-91 63q-27 18 -35 50 t10 49q18 18 48 15t59 -26q45 -33 97 -82t94 -111.5t52 -131.5q10 -59 -4 -124t-37.5 -128.5t-45 -122.5t-25.5 -113q-2 -51 19.5 -106t66.5 -115q23 -29 43 -51.5t18 -52.5q0 -29 -23.5 -45.5t-54.5 -38.5q-57 -45 -92 -90t-45 -99q-6 -35 -3 -97t8 -139t9.5 -154 t-2 -143.5t-26.5 -109.5q-31 -59 -93.5 -106t-130 -78t-114.5 -45q-39 -14 -79 -1t-46 40z" />
<glyph unicode="~" horiz-adv-x="1216" vert-adv-y="2580" d="M421 1084q3 24 19 44q31 41 83 65t110 24q41 0 78 -18.5t69.5 -38t57.5 -19.5q59 0 98 51q16 23 43 26t43 -14q18 -18 13 -40.5t-21 -45.5q-33 -39 -84 -62.5t-107 -23.5q-37 0 -74.5 19.5t-70.5 38t-62 18.5q-33 0 -56 -14.5t-42 -36.5q-18 -23 -44 -26t-42 13 q-14 16 -11 40z" />
<glyph unicode="&#xa0;" horiz-adv-x="583" vert-adv-y="2580" />
<glyph unicode="&#xa1;" horiz-adv-x="552" vert-adv-y="0" d="M133 49l113 1038q4 35 25.5 51.5t41.5 14.5q23 -2 42.5 -18.5t15.5 -47.5l-113 -1038q-2 -27 -25.5 -39t-48.5 -12q-20 0 -36.5 12.5t-14.5 38.5zM254 1481q0 43 27.5 71.5t68.5 28.5t70 -28.5t29 -71.5q0 -39 -29 -67t-70 -28t-68.5 28t-27.5 67z" />
<glyph unicode="&#xa2;" horiz-adv-x="763" vert-adv-y="2580" d="M43 428q16 141 68.5 237.5t130 146.5t168.5 50q74 0 129 -38t90 -91q8 -14 3 -36.5t-28 -34.5q-25 -12 -44 -6t-30 20q-18 31 -49.5 52.5t-74.5 21.5q-88 0 -156 -86t-84 -242q-8 -80 5 -151.5t53 -116.5t108 -45q47 0 94 35.5t80 101.5q10 18 33.5 24t46.5 -8 q23 -12 29 -34.5t-5 -41.5q-45 -82 -117 -135t-174 -53q-106 0 -170.5 63.5t-90 162t-15.5 204.5zM236 -92l112 1038q4 35 25.5 51.5t42.5 14.5q23 -2 41 -18.5t14 -47.5l-111 -1038q-4 -27 -26 -39t-47 -12q-20 0 -37 12t-14 39z" />
<glyph unicode="&#xa3;" horiz-adv-x="1148" vert-adv-y="2580" d="M122 46.5q3 21.5 19 45.5q4 6 42 50t91.5 113t104.5 149.5t82 162.5q23 61 24.5 139t-10.5 143.5t-33 90.5q-59 76 -100 143.5t-61.5 127t-20.5 110.5q0 68 35 123t104 94q41 23 87 33t96 10q115 0 232.5 -46t193.5 -112q41 -35 40 -59.5t-18 -42.5q-14 -16 -44 -16 t-73 36q-63 53 -158.5 85t-181.5 32q-35 0 -67.5 -6t-56.5 -20q-55 -33 -56 -99q0 -70 51.5 -160t108.5 -172q29 -39 45 -99t18 -128.5t-6 -135.5t-28 -120q-37 -98 -96.5 -192.5t-123 -177t-114.5 -148.5h-70q-31 0 -45 12.5t-11 34zM186 0l45 121h609q37 0 50 -18.5 t15 -41.5t-10 -42t-49 -19h-660zM221 799q0 23 12.5 38t49.5 15h518q37 0 51 -15.5t14 -37.5q0 -23 -11 -40.5t-48 -17.5h-518q-35 0 -51.5 17.5t-16.5 40.5z" />
<glyph unicode="&#xa5;" horiz-adv-x="1103" vert-adv-y="2580" d="M113 285q0 20 16 37.5t49 17.5h551q35 0 50.5 -16.5t15.5 -36.5t-15.5 -38t-50.5 -18h-551q-33 0 -49 16.5t-16 37.5zM114 1543.5q5 23.5 38 33.5q35 12 55 -5.5t29 -39.5l380 -825l-81 -121l-414 905q-12 29 -7 52.5zM154 651q0 20 16 39t49 19h553q33 0 49.5 -16.5 t16.5 -37.5q0 -20 -16.5 -38.5t-49.5 -18.5h-553q-33 0 -49 16.5t-16 36.5zM164 49q-2 23 12 43l850 1452q16 29 37.5 35t44.5 -4q27 -14 33 -40t-11 -54l-854 -1452q-10 -18 -26.5 -25.5t-34 -3.5t-31.5 14q-18 12 -20 35z" />
<glyph unicode="&#xa6;" horiz-adv-x="491" vert-adv-y="0" d="M27 -664l106 992q4 33 25.5 49t46.5 16q23 0 39 -16t14 -49l-106 -998q-2 -18 -11.5 -38.5t-50.5 -20.5q-33 0 -49 19.5t-14 45.5zM166 647l106 987q4 35 25.5 52.5t42.5 17.5q25 0 42 -18.5t11 -59.5l-104 -979q-2 -31 -22.5 -48t-45.5 -17q-23 -2 -40 16t-15 49z" />
<glyph unicode="&#xa9;" horiz-adv-x="2078" vert-adv-y="2580" d="M63 754q0 197 74 368.5t205 302.5t302 205t368 74t368.5 -74t303 -205t205 -303t73.5 -368q0 -197 -73.5 -368t-205 -302t-303 -205t-368.5 -74t-368 74t-302 205t-205 302t-74 368zM184 756q0 -172 64.5 -321.5t178.5 -264.5t264.5 -179.5t320.5 -64.5t320.5 64.5 t264 179.5t178 264.5t64.5 321.5q0 170 -64.5 319.5t-179 263t-264 178t-319.5 64.5t-319.5 -64.5t-264.5 -178t-179.5 -263t-64.5 -319.5zM684 715q10 104 45 201.5t87 174t115.5 120.5t131.5 44q76 0 131 -36.5t88 -92.5q10 -12 4 -34.5t-29 -34.5q-23 -14 -43 -7t-28 21 q-18 31 -51 51.5t-74 20.5q-45 0 -87 -38t-77 -101.5t-59.5 -140.5t-32.5 -154q-8 -80 5 -151t53 -116t108 -45q47 0 94 35t82 100q8 18 31.5 24.5t48.5 -7.5q23 -12 29 -33.5t-5 -40.5q-45 -82 -118 -136t-175 -54q-104 0 -169.5 63.5t-90 161.5t-14.5 205z" />
<glyph unicode="&#xad;" horiz-adv-x="823" vert-adv-y="0" d="M125 487q0 27 20.5 41.5t53.5 14.5h360q35 0 53.5 -14.5t18.5 -41.5t-20.5 -42t-55.5 -15h-360q-33 0 -51.5 15.5t-18.5 41.5z" />
<glyph unicode="&#xae;" horiz-adv-x="1431" vert-adv-y="2580" d="M207 1264q0 115 43 216t119.5 178t178 121t218.5 44t218 -44t178 -121t120 -178.5t43 -215.5q0 -117 -43 -218.5t-120 -178t-178 -121t-218 -44.5t-218.5 44.5t-178 121t-119.5 178t-43 218.5zM324 1264q0 -123 59 -223.5t159.5 -161t223.5 -60.5t222 60.5t158.5 161 t59.5 223.5q0 121 -59.5 221t-158.5 159.5t-222 59.5t-223.5 -59.5t-159.5 -160t-59 -220.5zM578 1036l51 473q2 16 9 23.5t24 7.5q18 0 42.5 -9t22.5 -30l-49 -469q-2 -14 -14 -26.5t-41 -12.5q-23 0 -35.5 12.5t-9.5 30.5zM623 1294l129 -8l170 -225q8 -8 7 -22.5 t-7 -20.5q-12 -25 -39 -25q-8 0 -23.5 4t-21.5 15zM657 1253l2 97q55 0 99.5 2t71 10t28.5 27q4 29 -53 40t-146 11l3 100q98 0 165.5 -15.5t101.5 -48t27 -90.5q-6 -53 -33.5 -81.5t-70.5 -39t-93.5 -11.5t-101.5 -1z" />
<glyph unicode="&#xb0;" horiz-adv-x="774" vert-adv-y="0" d="M209 1290q16 150 91 225.5t169 75.5q76 0 122 -44t65.5 -112.5t11.5 -144.5q-8 -74 -40 -144.5t-86 -116.5t-136 -46q-74 0 -120 45t-64.5 115.5t-12.5 146.5zM322 1284q-8 -74 15.5 -131t86.5 -57q43 0 82 50t49 146q4 35 -1 78t-25.5 76t-65.5 33q-55 0 -93 -46.5 t-48 -148.5z" />
<glyph unicode="&#xb1;" vert-adv-y="0" d="M137 371q0 20 16.5 36.5t49.5 16.5h551q35 0 50 -16.5t15 -36.5t-15.5 -39t-49.5 -19h-551q-33 0 -49.5 17.5t-16.5 40.5zM164 682q0 20 16.5 36.5t48.5 16.5h551q35 0 50.5 -16.5t15.5 -36.5t-15.5 -38.5t-50.5 -18.5h-551q-33 0 -49 17t-16 40zM438 530l29 322 q2 29 22.5 40t36.5 11q23 0 37.5 -21.5t9.5 -54.5l-30 -321q-2 -29 -22 -41t-38 -12q-20 0 -34.5 21.5t-10.5 55.5z" />
<glyph unicode="&#xb7;" horiz-adv-x="516" vert-adv-y="0" d="M158 569q0 41 27.5 68t70.5 27q41 0 68.5 -27t27.5 -68t-27.5 -70.5t-68.5 -29.5q-43 0 -70.5 29.5t-27.5 70.5z" />
<glyph unicode="&#xbf;" horiz-adv-x="1136" vert-adv-y="0" d="M117 375q0 170 66.5 284.5t179 175t249.5 70.5l21 182q4 41 25.5 54.5t43.5 13.5q23 0 40.5 -19.5t13.5 -45.5l-27 -246q-2 -20 -18.5 -34.5t-36.5 -14.5q-92 0 -172 -27t-139.5 -79t-92 -131t-32.5 -181q0 -125 73.5 -196.5t198.5 -71.5q104 0 168.5 44t97.5 111.5 t39 136.5q4 41 23.5 54.5t44.5 13.5q20 0 37.5 -19.5t13.5 -60.5q-10 -115 -62.5 -204t-142.5 -138t-219 -49q-121 0 -209 45t-136 129t-48 203zM635 1481q0 43 27.5 71.5t70.5 28.5q41 0 68.5 -28.5t27.5 -71.5q0 -39 -27.5 -67t-68.5 -28q-43 0 -70.5 28t-27.5 67z" />
<glyph unicode="&#xd7;" vert-adv-y="0" d="M138.5 258q0.5 21 21.5 41l579 571q27 25 50.5 24t39.5 -17q16 -14 15.5 -36t-27.5 -46l-573 -570q-27 -27 -51.5 -23.5t-40.5 19.5q-14 16 -13.5 37zM189 843q4 25 22 40q16 14 37.5 9t46.5 -34l491 -563q23 -27 17 -47.5t-27 -36.5q-16 -12 -36.5 -11.5t-43.5 25.5 l-493 570q-18 23 -14 48z" />
<glyph unicode="&#xf7;" vert-adv-y="0" d="M170 555q0 20 16.5 36.5t49.5 16.5h552q33 0 49.5 -16.5t16.5 -36.5t-16.5 -37.5t-49.5 -17.5h-552q-33 0 -49.5 17.5t-16.5 37.5zM403 293q0 29 20.5 53.5t55.5 24.5q31 0 56.5 -22.5t25.5 -55.5t-24.5 -57.5t-57.5 -24.5t-54.5 24.5t-21.5 57.5zM463 817 q0 29 22.5 53.5t55.5 24.5q31 0 55.5 -23.5t24.5 -54.5t-24.5 -55.5t-55.5 -24.5q-33 0 -55.5 25.5t-22.5 54.5z" />
<glyph unicode="&#x2dc;" horiz-adv-x="1216" vert-adv-y="0" d="M421 1084q3 24 19 44q31 41 83 65t110 24q41 0 78 -18.5t69.5 -38t57.5 -19.5q59 0 98 51q16 23 43 26t43 -14q18 -18 13 -40.5t-21 -45.5q-33 -39 -84 -62.5t-107 -23.5q-37 0 -74.5 19.5t-70.5 38t-62 18.5q-33 0 -56 -14.5t-42 -36.5q-18 -23 -44 -26t-42 13 q-14 16 -11 40z" />
<glyph unicode="&#x2000;" horiz-adv-x="911" vert-adv-y="0" />
<glyph unicode="&#x2001;" horiz-adv-x="1823" vert-adv-y="0" />
<glyph unicode="&#x2002;" horiz-adv-x="911" vert-adv-y="0" />
<glyph unicode="&#x2003;" horiz-adv-x="1823" vert-adv-y="0" />
<glyph unicode="&#x2004;" horiz-adv-x="607" vert-adv-y="0" />
<glyph unicode="&#x2005;" horiz-adv-x="455" vert-adv-y="0" />
<glyph unicode="&#x2006;" horiz-adv-x="303" vert-adv-y="0" />
<glyph unicode="&#x2007;" horiz-adv-x="303" vert-adv-y="0" />
<glyph unicode="&#x2008;" horiz-adv-x="227" vert-adv-y="0" />
<glyph unicode="&#x2009;" horiz-adv-x="364" vert-adv-y="0" />
<glyph unicode="&#x200a;" horiz-adv-x="101" vert-adv-y="0" />
<glyph unicode="&#x2010;" horiz-adv-x="823" vert-adv-y="0" d="M125 487q0 27 20.5 41.5t53.5 14.5h360q35 0 53.5 -14.5t18.5 -41.5t-20.5 -42t-55.5 -15h-360q-33 0 -51.5 15.5t-18.5 41.5z" />
<glyph unicode="&#x2011;" horiz-adv-x="823" vert-adv-y="0" d="M125 487q0 27 20.5 41.5t53.5 14.5h360q35 0 53.5 -14.5t18.5 -41.5t-20.5 -42t-55.5 -15h-360q-33 0 -51.5 15.5t-18.5 41.5z" />
<glyph unicode="&#x2012;" horiz-adv-x="823" vert-adv-y="0" d="M125 487q0 27 20.5 41.5t53.5 14.5h360q35 0 53.5 -14.5t18.5 -41.5t-20.5 -42t-55.5 -15h-360q-33 0 -51.5 15.5t-18.5 41.5z" />
<glyph unicode="&#x2013;" horiz-adv-x="944" vert-adv-y="0" d="M125 487q0 27 20.5 41.5t53.5 14.5h483q33 0 51.5 -14.5t18.5 -41.5t-20.5 -42t-55.5 -15h-481q-33 0 -51.5 15.5t-18.5 41.5z" />
<glyph unicode="&#x2014;" horiz-adv-x="1308" vert-adv-y="0" d="M125 487q0 27 20.5 41.5t53.5 14.5h848q33 0 51 -14.5t18 -41.5t-20.5 -42t-55.5 -15h-845q-33 0 -51.5 15.5t-18.5 41.5z" />
<glyph unicode="&#x2018;" horiz-adv-x="442" vert-adv-y="2580" d="M207 1284l26 244q4 27 23.5 40t40.5 13q27 0 45 -18.5t16 -53.5l-24 -241q-2 -27 -22.5 -39t-43.5 -12q-27 0 -45 17t-16 50z" />
<glyph unicode="&#x2019;" horiz-adv-x="442" vert-adv-y="2580" d="M207 1284l26 244q4 27 23.5 40t40.5 13q27 0 45 -18.5t16 -53.5l-24 -241q-2 -27 -22.5 -39t-43.5 -12q-27 0 -45 17t-16 50z" />
<glyph unicode="&#x201c;" horiz-adv-x="710" vert-adv-y="2580" d="M209 1284l24 234q4 33 26 48t42 15q25 0 44.5 -18.5t14.5 -53.5l-26 -233q-4 -29 -23.5 -44t-42.5 -15q-25 0 -43 17t-16 50zM471 1284l29 244q4 27 22.5 40t38.5 13q27 0 45.5 -18.5t16.5 -53.5l-23 -229q-2 -35 -23.5 -49t-44.5 -14q-25 0 -44 17t-17 50z" />
<glyph unicode="&#x201d;" horiz-adv-x="710" vert-adv-y="2580" d="M209 1284l24 234q4 33 26 48t42 15q25 0 44.5 -18.5t14.5 -53.5l-26 -233q-4 -29 -23.5 -44t-42.5 -15q-25 0 -43 17t-16 50zM471 1284l29 244q4 27 22.5 40t38.5 13q27 0 45.5 -18.5t16.5 -53.5l-23 -229q-2 -35 -23.5 -49t-44.5 -14q-25 0 -44 17t-17 50z" />
<glyph unicode="&#x2022;" horiz-adv-x="684" vert-adv-y="0" d="M166 864q0 49 24.5 90t65.5 67t90 26t91 -26t67.5 -67t25.5 -90t-25.5 -92t-67.5 -69.5t-91 -26.5q-51 0 -92 26.5t-64.5 70.5t-23.5 91z" />
<glyph unicode="&#x2026;" horiz-adv-x="1191" vert-adv-y="0" d="M82 98q0 41 28.5 68t69.5 27t68.5 -27t27.5 -68q0 -43 -27.5 -71.5t-68.5 -28.5t-69.5 28.5t-28.5 71.5zM424 98q0 41 27.5 68t68.5 27q43 0 70.5 -27t27.5 -68q0 -43 -27.5 -71.5t-70.5 -28.5q-41 0 -68.5 28.5t-27.5 71.5zM764 98q0 41 27.5 68t70.5 27q41 0 68.5 -27 t27.5 -68q0 -43 -27.5 -71.5t-68.5 -28.5q-43 0 -70.5 28.5t-27.5 71.5z" />
<glyph unicode="&#x202f;" horiz-adv-x="364" vert-adv-y="0" />
<glyph unicode="&#x205f;" horiz-adv-x="455" vert-adv-y="0" />
<glyph unicode="&#x20ac;" horiz-adv-x="1361" vert-adv-y="2580" d="M25 539q0 20 16 37.5t49 17.5h553q33 0 49.5 -16.5t16.5 -36.5t-16.5 -39t-49.5 -19h-553q-33 0 -49 17.5t-16 38.5zM66 905q0 20 16 38t49 18h553q33 0 49.5 -16.5t16.5 -37.5q0 -20 -16.5 -37.5t-49.5 -17.5h-553q-33 0 -49 16.5t-16 36.5zM294 381q-30 188 19 446 q45 238 134.5 410t211 264t265.5 92q96 0 163.5 -23.5t115.5 -57t81 -64.5q16 -14 24.5 -39t-14.5 -53q-23 -27 -52.5 -21t-47.5 21q-25 18 -64.5 48t-89 53.5t-108.5 23.5q-117 0 -216.5 -82t-171 -231.5t-108.5 -354.5q-41 -219 -23.5 -380t87 -247t188.5 -86q98 0 175 40 t131.5 101.5t84.5 120.5q23 41 45.5 59.5t53.5 2.5t29.5 -44t-25.5 -75q-37 -76 -109 -148.5t-168 -120.5t-207 -48q-168 0 -271 102.5t-133 290.5z" />
<glyph unicode="&#x2122;" horiz-adv-x="1937" vert-adv-y="2580" d="M207 1645q-2 29 12 47t45 18h451q29 0 46 -18.5t19 -46.5q4 -27 -11 -45.5t-44 -18.5h-451q-31 0 -48 18.5t-19 45.5zM354 922l74 698h125l-76 -711q-2 -18 -13 -37.5t-46 -19.5q-33 0 -49.5 22.5t-14.5 47.5zM747.5 903.5q-4.5 22.5 4.5 42.5l323 711q12 29 25.5 42 t40.5 13l20 -168l-293 -641q-12 -29 -28.5 -40t-32.5 -11q-23 0 -39 14.5t-20.5 37zM1098 1544l43 168q31 0 46 -16.5t17 -36.5l127 -686l-49 -121q-31 0 -44 17.5t-19 39.5zM1253 993l338 676q10 18 24.5 30.5t39.5 12.5l18 -168l-327 -651q-8 -16 -22.5 -28.5t-43.5 -12.5 zM1614 1544l41 168q25 0 44 -19.5t21 -50.5l113 -722q4 -27 -11.5 -47.5t-43.5 -20.5q-31 0 -47.5 18.5t-20.5 42.5z" />
<glyph unicode="&#x25fc;" horiz-adv-x="849" vert-adv-y="1699" d="M0 0v850h850v-850h-850z" />
</font>
</defs>
</svg>
